PathFileType	4	(X/Y/Z)	..\data\sprint.trc
DataRate	CameraRate	NumFrames	NumMarkers	Units	OrigDataRate	OrigDataStartFrame	OrigNumFrames
250.000000	250.000000	4	51	mm	250.000000	81	324
Frame#	Time	C7			RSH			LSH			MAN			T7			LARM			LELB			LFOREARM			LWR			RARM			RELB			RFOREARM			RWR			RASI			LASI			SACR			P1			P2			P3			LTHLP			LTHLD			LTHAP			LTHAD			LLEPI			LPAT			LTIAP			LTIAD			LTILAT			LLMAL			LHEEL			LMFS			LMFL			LP1MT			LTOE			LP5MT			RTHLP			RTHLD			RTHAP			RTHAD			RLEPI			RPAT			RTIAP			RTIAD			RTILAT			RLMAL			RHEEL			RMFS			RMFL			RP1MT			RTOE			RP5MT			
		X1	Y1	Z1	X2	Y2	Z2	X3	Y3	Z3	X4	Y4	Z4	X5	Y5	Z5	X6	Y6	Z6	X7	Y7	Z7	X8	Y8	Z8	X9	Y9	Z9	X10	Y10	Z10	X11	Y11	Z11	X12	Y12	Z12	X13	Y13	Z13	X14	Y14	Z14	X15	Y15	Z15	X16	Y16	Z16	X17	Y17	Z17	X18	Y18	Z18	X19	Y19	Z19	X20	Y20	Z20	X21	Y21	Z21	X22	Y22	Z22	X23	Y23	Z23	X24	Y24	Z24	X25	Y25	Z25	X26	Y26	Z26	X27	Y27	Z27	X28	Y28	Z28	X29	Y29	Z29	X30	Y30	Z30	X31	Y31	Z31	X32	Y32	Z32	X33	Y33	Z33	X34	Y34	Z34	X35	Y35	Z35	X36	Y36	Z36	X37	Y37	Z37	X38	Y38	Z38	X39	Y39	Z39	X40	Y40	Z40	X41	Y41	Z41	X42	Y42	Z42	X43	Y43	Z43	X44	Y44	Z44	X45	Y45	Z45	X46	Y46	Z46	X47	Y47	Z47	X48	Y48	Z48	X49	Y49	Z49	X50	Y50	Z50	X51	Y51	Z51	

82	0.324	-2913.661621093751	1508.950805664063	186.9596099853516	-2885.222900390626	1468.071044921875	362.9902343750001	-2864.053222656251	1511.709716796875	29.93695068359376	-2800.632812500001	1389.129028320313	204.8927307128907	-3017.928222656251	1338.159423828125	158.6140594482422	-2859.878662109376	1314.191772460938	-72.00086975097659	-2850.082519531251	1176.564331054688	-94.60917663574222	-2724.984619140626	1163.090454101563	-13.46739864349366	-2619.206787109376	1141.4609375	50.69964599609378	-3031.514160156251	1367.943603515625	439.5028991699221	-3152.426513671877	1303.34033203125	483.0478820800784	-3149.054931640627	1152.141967773438	497.7145996093752	-3159.379882812502	1017.396423339844	496.4001464843752	-2866.254638671876	1043.742919921875	256.0196838378907	-2882.695312500001	1016.741271972657	45.50725555419923	-3056.336425781251	1082.880493164063	170.4059143066407	-3069.258300781251	1056.49853515625	119.2113494873047	-3073.418701171877	1054.060424804688	224.9278869628907	-3099.769531250002	999.878540039063	171.3869934082032	-3076.233886718752	750.3133544921877	-14.24193000793458	-3104.490722656252	640.1475219726565	-4.037329196929933	-2947.503662109376	695.814147949219	48.72431945800784	-2996.440185546876	589.4302978515627	57.29119110107425	-3142.884765625002	538.8765258789065	18.49925804138184	-3091.864990234377	457.6951904296877	75.44317626953128	-3294.458251953127	568.8808593750002	110.7601928710938	-3409.385498046877	646.1494140625002	124.7264251708985	-3338.837890625002	640.7360839843752	44.48464965820314	-3523.590576171877	746.7113037109377	82.97621917724612	-3490.544189453127	811.0280761718755	128.4414520263672	-3596.594970703127	679.9993896484377	152.1474914550782	-3607.397216796877	723.3654785156252	92.36930847167972	-3673.289062500002	685.4344482421877	206.5828857421876	-3684.052490234377	656.3020629882815	170.2604675292969	-3692.536132812502	713.5901489257815	87.2384948730469	-2850.164306640626	804.4704589843755	359.3796997070314	-2762.484130859376	732.438415527344	350.2587280273439	-2733.067382812501	863.0784301757817	287.391082763672	-2676.516357421876	790.8967895507817	273.7687988281251	-2656.974853515626	630.4258422851565	314.0561523437501	-2572.901367187501	674.1779785156252	265.1358947753907	-2573.870605468751	437.453063964844	223.7227325439454	-2550.667480468751	313.6579895019532	201.2209472656251	-2613.613037109376	407.7056579589846	299.916473388672	-2547.167480468751	179.1011810302735	241.5750427246095	-2600.859863281251	138.3746643066407	183.1007385253907	-2440.477294921876	208.7771148681642	209.1346740722657	-2470.871826171876	150.5303497314454	248.2121887207032	-2368.309326171876	191.8137969970704	164.8218231201172	-2358.332519531251	206.8431549072267	212.2067413330079	-2386.801757812501	125.1567077636719	268.5932617187501	
83	0.328	-2876.593750000001	1508.350952148438	188.128402709961	-2845.480224609376	1465.858520507813	364.0782470703126	-2824.886718750001	1510.033569335938	29.27449798583986	-2762.497314453126	1387.820678710938	204.2548065185548	-2980.556152343751	1339.212036132813	159.5602111816407	-2829.121093750001	1312.268432617188	-72.3100509643555	-2824.026855468751	1174.20556640625	-95.51359558105472	-2697.194091796876	1145.482666015625	-18.88412094116212	-2592.594482421876	1109.856567382813	40.9335060119629	-2988.777343750001	1360.957763671875	442.9209899902346	-3106.456298828127	1292.06884765625	488.462341308594	-3096.196533203127	1141.067138671875	500.044616699219	-3100.250976562502	1006.149108886719	496.3144226074221	-2830.419921875001	1044.455932617188	256.608367919922	-2846.527832031251	1017.603210449219	45.28939819335939	-3020.095458984376	1082.188598632813	170.5777435302735	-3033.727539062501	1055.746215820313	119.3583145141602	-3037.081542968751	1053.870971679688	225.5085296630861	-3063.901855468751	999.2393188476567	171.6880035400391	-3032.574462890626	746.6887817382815	-15.38979530334473	-3057.369140625001	635.950378417969	-4.808493614196779	-2902.660888671876	696.144958496094	48.59476852416995	-2948.016357421876	587.7280883789065	55.86906433105472	-3091.928222656252	534.4302978515627	16.93196678161622	-3040.222412109376	453.3134765625002	74.51464843750003	-3240.183593750002	569.0124511718752	110.6320571899415	-3351.923339843752	650.8020629882815	125.5369567871094	-3282.637939453127	642.156921386719	44.690486907959	-3461.345947265627	755.6010742187502	84.73259735107425	-3427.221435546877	818.7432250976567	130.8487548828126	-3537.295410156252	690.5396728515627	152.0507965087891	-3545.611572265627	734.1293945312502	92.94468688964847	-3615.883544921877	697.5906372070315	204.0797424316407	-3626.036865234377	669.0982055664065	168.1427612304688	-3631.010253906252	727.8005981445315	84.91719818115237	-2818.550781250001	801.3184204101567	360.3268432617189	-2732.485595703126	727.2566528320315	351.2006225585939	-2699.443603515626	856.2802734375005	290.7776184082032	-2644.571533203126	784.8090820312505	277.7219543457032	-2629.323242187501	623.0181274414065	315.0059509277345	-2544.500488281251	668.2227172851565	269.1991271972657	-2548.061035156251	429.7573547363284	223.3490295410157	-2526.793457031251	306.1188354492189	199.4118041992189	-2591.321289062501	399.2988586425784	296.8749389648439	-2528.263671875001	170.7664642333985	237.5315856933595	-2580.854492187501	132.4464416503907	175.5503387451172	-2419.383544921876	198.1846008300782	208.8021697998048	-2453.205810546876	140.5214233398438	245.6954040527345	-2345.817138671876	179.5503997802735	167.3552856445313	-2337.559326171876	194.0096435546876	215.6094055175782	-2370.828125000001	112.2980422973633	269.5640258789064	
84	0.332	-2838.023925781251	1507.578979492188	189.2029571533204	-2805.740478515626	1463.5478515625	365.1383666992189	-2786.508544921876	1507.872192382813	28.59337615966798	-2724.503906250001	1386.396118164063	203.7099456787111	-2944.125244140626	1339.936645507813	160.2229614257813	-2798.587890625001	1310.648559570313	-72.50149536132815	-2797.442382812501	1171.727172851563	-96.25338745117193	-2671.449951171876	1127.78271484375	-23.81328773498536	-2568.927001953126	1078.546264648438	30.4835605621338	-2945.577636718751	1353.477172851563	446.4260864257815	-3059.753662109376	1280.251708984375	493.8115539550784	-3042.631835937501	1129.889892578125	502.2472839355471	-3040.481445312501	995.153198242188	495.9901428222659	-2794.834472656251	1044.478515625	257.0919494628907	-2810.214111328126	1018.09130859375	45.12401580810548	-2985.005615234376	1081.923828125	170.6684570312501	-2997.712158203126	1055.018188476563	119.5095443725587	-3001.638671875001	1053.61474609375	225.640594482422	-3028.056884765626	998.6044311523442	171.8904571533204	-2988.473632812501	742.7246704101565	-16.53271102905274	-3009.655273437501	631.6257324218752	-5.764266967773439	-2858.037597656251	696.2891235351565	48.65652465820315	-2899.243408203126	586.2864379882815	54.85103988647464	-3040.025146484376	530.020935058594	15.32705688476563	-2987.556396484376	449.078796386719	73.33754730224612	-3185.023437500002	568.398864746094	110.5684814453126	-3294.096923828127	653.9309082031252	126.2124176025391	-3225.924804687502	642.6821289062502	44.58678054809572	-3398.920410156252	762.8801269531252	85.74004364013675	-3364.139892578127	824.8389282226567	133.1198883056641	-3477.098876953127	699.2842407226565	151.8847961425782	-3483.461669921877	743.2058715820315	92.91545104980472	-3557.007812500002	707.6067504882815	201.8519592285157	-3566.937500000002	679.373229980469	165.8486328125001	-3568.642822265627	738.661071777344	82.84272766113284	-2787.122802734376	798.207641601563	361.365203857422	-2702.478027343751	722.4300537109377	351.9213867187501	-2665.879150390626	849.8451538085942	294.2785949707032	-2612.277343750001	779.7294311523442	282.0593261718751	-2601.858886718751	615.6989746093752	315.9035034179689	-2516.370117187501	662.1610107421877	273.482391357422	-2523.311035156251	422.0236511230471	222.6465759277345	-2504.614990234376	298.3782348632814	197.6672515869142	-2569.824707031251	391.1771545410159	294.1776428222657	-2511.563232421876	162.3100891113282	233.2229156494142	-2562.690673828126	126.8837127685547	168.2969665527344	-2400.556884765626	187.0824432373047	207.9734497070314	-2435.852539062501	130.2640075683594	243.9578399658204	-2326.118652343751	166.3603973388672	169.0876464843751	-2319.471191406251	179.7946319580079	217.673797607422	-2357.498779296876	98.80178833007818	269.7027282714845	
85	0.336	-2799.817626953126	1506.728881835938	190.5958099365235	-2765.980712890626	1461.17822265625	366.113739013672	-2748.597656250001	1505.768920898438	28.01648139953615	-2686.423583984376	1384.8564453125	203.2809906005861	-2907.106201171876	1340.135009765625	161.0903930664063	-2767.130126953126	1308.9365234375	-72.04445648193362	-2769.997070312501	1169.277954101563	-96.74404144287115	-2646.366455078126	1110.609130859375	-29.66841316223146	-2547.656494140626	1048.133178710938	18.76028442382813	-2901.845703125001	1345.558349609375	450.0424804687502	-3012.303955078126	1268.09228515625	499.1320800781252	-2988.298095703126	1118.735961914063	504.338073730469	-2980.026611328126	984.4784545898442	495.4904785156252	-2759.650878906251	1044.001098632813	257.344940185547	-2773.850585937501	1018.207458496094	45.15116119384767	-2949.412353515626	1081.525512695313	170.9067382812501	-2961.510986328126	1054.462890625	119.4308471679688	-2966.290527343751	1053.473999023438	225.829803466797	-2992.199462890626	998.2163696289067	171.9210510253907	-2943.864257812501	738.4807128906252	-17.55212020874024	-2961.387695312501	626.1519775390627	-6.558559894561771	-2812.522949218751	696.5325927734377	48.76240921020511	-2849.632812500001	584.8858642578127	54.0190238952637	-2987.958251953126	525.8113403320315	13.79655456542969	-2934.415771484376	445.0054016113284	72.73309326171878	-3129.239501953127	567.5113525390627	110.3087234497071	-3235.224121093752	656.7181396484377	126.7655258178712	-3168.417236328127	642.8634033203127	44.96873474121095	-3336.196044921877	768.4645996093755	86.9306564331055	-3301.153808593752	829.724487304688	134.9365692138672	-3416.325927734377	706.0775146484377	152.1528778076172	-3420.451660156252	750.2857055664065	92.23359680175784	-3497.246826171877	715.2043457031252	199.5618743896486	-3507.301757812502	687.2996826171877	163.5420532226563	-3505.545410156252	747.0139770507815	80.5845642089844	-2755.428466796876	795.1769409179692	362.5348205566407	-2672.392333984376	717.9612426757815	352.3359680175782	-2632.836181640626	844.0339355468755	297.7971801757814	-2579.533447265626	775.148803710938	287.0025329589845	-2574.699218750001	608.4212036132815	316.679901123047	-2488.755859375001	655.841979980469	277.3956909179689	-2499.720458984376	414.0044860839846	221.9789276123048	-2483.952392578126	290.2866210937501	195.7911529541017	-2548.973144531251	383.555389404297	291.706512451172	-2496.342773437501	154.1299896240235	229.0180664062501	-2546.893554687501	121.6809844970704	161.8808288574219	-2383.619628906251	175.6743927001954	206.9394531250001	-2423.308349609376	119.7798690795899	239.8929901123048	-2309.128662109376	152.3715820312501	169.3653106689454	-2303.532714843751	165.0124664306641	218.5669097900392	-2345.926757812501	84.73954010009768	268.4348449707032	
